<?xml version="1.0" standalone="no"?>
<!DOCTYPE svg PUBLIC "-//W3C//DTD SVG 20010904//EN"
 "http://www.w3.org/TR/2001/REC-SVG-20010904/DTD/svg10.dtd">
<svg version="1.0" xmlns="http://www.w3.org/2000/svg"
 width="300.000000pt" height="91.000000pt" viewBox="0 0 300.000000 91.000000"
 preserveAspectRatio="xMidYMid meet">
<metadata>
Created by potrace 1.10, written by Peter Selinger 2001-2011
</metadata>
<g transform="translate(0.000000,91.000000) scale(0.100000,-0.100000)"
fill="#000000" stroke="none">
<path d="M82 883 c-2 -30 -5 -32 -44 -36 l-43 -4 43 -1 42 -2 0 -134 0 -135
-42 -4 -43 -4 43 -1 42 -2 2 -282 c1 -156 3 -253 5 -215 l4 67 64 0 64 0 4
-67 3 -68 2 75 2 75 -70 -3 -70 -4 0 351 0 351 64 0 65 0 4 -32 4 -33 1 32 c2
31 4 32 50 36 l47 3 -47 2 c-45 2 -47 3 -51 35 l-4 32 -1 -32 -2 -33 -64 0
-65 0 -4 33 -4 32 -1 -32z"/>
<path d="M362 885 c0 -16 2 -22 5 -12 2 9 2 23 0 30 -3 6 -5 -1 -5 -18z"/>
<path d="M502 883 c-1 -21 -8 -33 -19 -35 -38 -8 22 -13 87 -7 l65 6 -62 1
-62 2 -4 33 -4 32 -1 -32z"/>
<path d="M642 878 l-2 -38 69 0 c64 0 70 -2 74 -22 l4 -23 2 23 c1 20 6 22 66
22 l64 0 4 -62 3 -63 2 62 2 62 63 4 62 3 -62 2 c-62 2 -62 2 -66 35 l-4 32
-1 -32 -2 -33 -64 0 -65 0 -4 33 -4 32 -1 -32 -2 -33 -64 0 -65 0 -4 33 c-4
31 -4 31 -5 -5z"/>
<path d="M1064 740 c0 -156 1 -160 3 -37 l4 137 64 0 65 0 0 -75 c0 -41 3 -75
8 -75 4 0 6 34 4 75 l-4 75 66 0 66 0 0 -135 0 -134 -72 -4 -73 -3 73 -2 c67
-2 72 -4 72 -24 0 -12 3 -19 6 -15 3 3 5 75 5 161 l-2 155 136 0 135 0 0 -134
0 -135 -97 0 c-53 0 -94 -3 -90 -6 3 -3 46 -6 96 -5 86 1 90 0 94 -21 l4 -23
2 22 c1 20 7 22 74 26 l72 3 -72 2 -72 2 0 135 0 135 70 0 71 0 -4 -75 c-2
-41 0 -75 5 -75 4 0 7 34 7 75 l0 75 60 0 60 0 2 -132 c1 -73 3 -107 5 -76 l4
57 62 4 62 3 -62 2 -63 2 0 70 0 70 70 0 69 0 0 -134 c0 -131 0 -135 -22 -139
l-22 -4 22 -2 c14 -1 23 -9 26 -23 l4 -23 2 22 c1 22 4 22 135 22 119 0 135
-2 139 -17 4 -16 5 -16 6 1 1 14 11 17 65 17 53 0 65 -3 69 -17 4 -17 5 -17 6
0 1 14 11 17 65 17 59 0 65 -2 69 -22 l4 -23 2 23 c1 20 6 22 65 22 63 0 65
-1 69 -27 l4 -28 2 28 c1 27 2 27 66 27 l65 0 0 -210 0 -210 -65 0 -65 0 -2
113 c-1 61 -3 95 -5 75 l-4 -37 -62 -4 -62 -3 63 -2 62 -2 0 -70 0 -70 -65 0
-65 0 -2 118 c-1 64 -3 98 -5 75 l-4 -42 -62 -4 -62 -3 63 -2 62 -2 0 -70 0
-70 -65 0 -65 0 0 75 0 75 -67 -2 -68 -2 63 -3 62 -4 0 -69 0 -70 -65 0 -65 0
-1 93 c-1 50 -3 84 -6 75 -4 -16 -19 -18 -138 -18 l-134 0 -4 38 -4 37 -1 -37
-2 -38 -69 0 -70 0 -4 38 c-2 20 -4 -14 -5 -75 l-2 -113 -60 0 -60 0 0 70 0
69 58 4 c31 2 -2 4 -75 5 l-132 2 -4 38 c-2 20 -4 -14 -5 -75 l-2 -113 -65 0
-64 0 -4 62 -3 63 -2 -62 -2 -63 -65 0 -65 0 0 70 0 69 126 0 c70 0 129 3 132
6 3 3 -54 5 -126 5 l-131 0 -4 38 c-2 20 -4 -14 -5 -75 l-2 -113 -65 0 -65 0
0 70 0 69 63 4 62 3 -62 2 -62 2 -4 43 -4 42 -1 -42 -2 -42 -62 -4 -63 -3 63
-2 62 -2 0 -70 0 -70 -65 0 -64 0 -4 113 c-1 61 -3 29 -3 -73 0 -102 1 -155 3
-117 l4 67 64 0 64 0 4 -57 3 -58 2 58 2 57 65 0 64 0 4 -67 3 -68 2 68 2 67
135 0 134 0 4 -67 3 -68 2 68 2 67 135 0 134 0 4 -57 3 -58 2 58 2 57 70 0 69
0 4 -68 3 -67 2 68 2 67 135 0 134 0 4 -68 3 -67 2 68 2 67 135 0 134 0 4 -67
3 -68 2 68 2 67 65 0 64 0 4 -67 3 -68 2 68 2 67 65 0 64 0 4 -67 3 -68 2 67
2 67 53 4 52 3 -52 2 -53 2 0 134 0 135 53 4 52 3 -52 2 -53 2 0 69 0 70 53 4
52 3 -52 2 -53 2 0 134 0 135 53 4 52 3 -52 2 c-50 2 -52 3 -56 35 l-4 32 -1
-32 -2 -33 -64 0 -65 0 -4 33 -4 32 -1 -32 -2 -33 -64 0 -65 0 -4 33 -4 32 -1
-32 -2 -33 -134 0 -135 0 -4 33 -4 32 -1 -32 -2 -33 -134 0 -135 0 -4 33 -4
32 -1 -32 -2 -33 -69 0 -70 0 -4 33 -4 32 -1 -32 -2 -33 -134 0 -135 0 -4 33
-4 32 -1 -32 -2 -33 -134 0 -135 0 -4 33 -4 32 -1 -32 -2 -33 -134 0 -135 0
-4 33 c-2 17 -4 -47 -3 -143z m1266 -35 l0 -135 -135 0 -135 0 0 135 0 134
135 0 135 0 0 -134z m138 60 c-2 -41 0 -75 5 -75 4 0 7 34 7 75 l0 75 65 0 65
0 0 -135 0 -135 -135 0 -135 0 0 135 0 135 66 0 66 0 -4 -75z m281 -60 l0
-135 -64 0 -65 0 0 135 0 135 65 0 64 0 0 -135z m141 0 l0 -135 -65 0 -65 0 0
135 0 135 65 0 65 0 0 -135z m-1120 -495 l0 -70 -70 0 -70 0 0 70 0 70 70 0
70 0 0 -70z m280 0 l0 -70 -70 0 -70 0 0 70 0 70 70 0 70 0 0 -70z m280 0 l0
-69 -135 0 -135 0 0 69 0 69 135 0 135 0 0 -69z"/>
<path d="M2193 770 c0 -30 2 -43 4 -27 2 15 2 39 0 55 -2 15 -4 2 -4 -28z"/>
<path d="M2180 700 c0 -5 5 -10 10 -10 6 0 10 5 10 10 0 6 -4 10 -10 10 -5 0
-10 -4 -10 -10z"/>
<path d="M2093 693 c15 -2 39 -2 55 0 15 2 2 4 -28 4 -30 0 -43 -2 -27 -4z"/>
<path d="M2238 693 c18 -2 45 -2 60 0 15 2 0 4 -33 4 -33 0 -45 -2 -27 -4z"/>
<path d="M2193 630 c0 -30 2 -43 4 -27 2 15 2 39 0 55 -2 15 -4 2 -4 -28z"/>
<path d="M2373 693 c15 -2 39 -2 55 0 15 2 2 4 -28 4 -30 0 -43 -2 -27 -4z"/>
<path d="M2518 693 c18 -2 45 -2 60 0 15 2 0 4 -33 4 -33 0 -45 -2 -27 -4z"/>
<path d="M2473 630 c0 -30 2 -43 4 -27 2 15 2 39 0 55 -2 15 -4 2 -4 -28z"/>
<path d="M2653 693 c15 -2 39 -2 55 0 15 2 2 4 -28 4 -30 0 -43 -2 -27 -4z"/>
<path d="M2798 693 c18 -2 45 -2 60 0 15 2 0 4 -33 4 -33 0 -45 -2 -27 -4z"/>
<path d="M2193 210 c0 -30 2 -43 4 -27 2 15 2 39 0 55 -2 15 -4 2 -4 -28z"/>
<path d="M1202 885 c0 -16 2 -22 5 -12 2 9 2 23 0 30 -3 6 -5 -1 -5 -18z"/>
<path d="M1480 883 c0 -30 9 -27 15 6 2 11 0 21 -6 21 -5 0 -9 -12 -9 -27z"/>
<path d="M1772 885 c0 -16 2 -22 5 -12 2 9 2 23 0 30 -3 6 -5 -1 -5 -18z"/>
<path d="M2188 885 c2 -14 6 -25 8 -25 2 0 4 11 4 25 0 14 -4 25 -9 25 -4 0
-6 -11 -3 -25z"/>
<path d="M2472 885 c0 -16 2 -22 5 -12 2 9 2 23 0 30 -3 6 -5 -1 -5 -18z"/>
<path d="M355 836 c-39 -19 -86 -48 -105 -65 l-35 -29 23 -25 24 -25 51 39
c29 22 74 47 100 57 40 14 47 20 43 37 -3 11 -6 26 -6 33 0 19 -20 15 -95 -22z
m70 -6 c3 -5 -14 -19 -37 -31 -24 -12 -57 -32 -75 -45 -17 -13 -39 -24 -49
-24 -28 0 25 46 92 80 66 34 61 33 69 20z"/>
<path d="M533 813 c-24 -2 -43 -5 -43 -7 0 -2 5 -16 10 -32 l10 -29 95 0 95 0
10 29 c6 16 9 30 8 32 -6 6 -146 11 -185 7z m147 -33 c0 -11 -12 -13 -85 -10
-84 3 -77 20 8 20 45 0 77 -4 77 -10z"/>
<path d="M1483 770 c0 -30 2 -43 4 -27 2 15 2 39 0 55 -2 15 -4 2 -4 -28z"/>
<path d="M415 775 c-27 -12 -70 -37 -94 -55 l-44 -32 25 -25 25 -25 46 35 c25
19 62 40 82 47 30 10 35 15 29 33 -13 45 -17 46 -69 22z m39 -24 c3 -5 -8 -14
-25 -21 -17 -8 -46 -24 -65 -36 -19 -13 -36 -19 -39 -14 -10 16 3 29 53 55 51
26 68 30 76 16z"/>
<path d="M733 765 c-11 -33 -10 -34 24 -45 18 -7 54 -27 79 -47 45 -34 46 -34
67 -16 12 10 24 19 26 20 16 10 -77 76 -150 107 l-36 15 -10 -34z m128 -55
c33 -24 40 -47 10 -30 -11 5 -25 16 -33 23 -7 7 -28 19 -45 26 -18 7 -33 17
-33 22 0 12 62 -14 101 -41z"/>
<path d="M520 718 c1 -48 8 -53 85 -53 66 -1 74 1 79 20 12 44 9 45 -79 45
-61 0 -85 -3 -85 -12z m140 -17 c0 -4 -25 -8 -55 -8 -30 0 -55 4 -55 8 0 5 25
9 55 9 30 0 55 -4 55 -9z"/>
<path d="M434 695 c-27 -14 -59 -34 -72 -45 l-24 -20 28 -23 28 -24 44 33 c24
19 50 34 58 34 15 0 17 12 8 48 -8 28 -9 28 -70 -3z m36 -12 c0 -11 -66 -63
-79 -63 -24 0 -9 26 27 47 40 24 52 27 52 16z"/>
<path d="M696 662 c-10 -31 -20 -63 -23 -69 -2 -7 4 -16 14 -20 10 -3 31 -15
46 -26 28 -19 28 -19 52 3 14 13 22 27 19 32 -3 4 -29 22 -57 38 -29 16 -45
30 -36 30 8 0 36 -14 62 -30 45 -29 49 -29 72 -14 14 9 25 19 25 22 0 12 -99
75 -135 86 -17 5 -23 -3 -39 -52z m106 -5 c26 -19 36 -37 22 -37 -13 0 -94 53
-94 62 0 13 39 0 72 -25z m-47 -64 c11 -6 17 -15 13 -19 -10 -9 -69 16 -63 26
6 10 24 8 50 -7z"/>
<path d="M1480 700 c0 -5 5 -10 10 -10 6 0 10 5 10 10 0 6 -4 10 -10 10 -5 0
-10 -4 -10 -10z"/>
<path d="M18 693 c12 -2 30 -2 40 0 9 3 -1 5 -23 4 -22 0 -30 -2 -17 -4z"/>
<path d="M128 693 c18 -2 45 -2 60 0 15 2 0 4 -33 4 -33 0 -45 -2 -27 -4z"/>
<path d="M223 650 c0 -30 2 -43 4 -27 2 15 2 39 0 55 -2 15 -4 2 -4 -28z"/>
<path d="M983 693 c15 -2 37 -2 50 0 12 2 0 4 -28 4 -27 0 -38 -2 -22 -4z"/>
<path d="M1108 693 c18 -2 45 -2 60 0 15 2 0 4 -33 4 -33 0 -45 -2 -27 -4z"/>
<path d="M1253 693 c15 -2 39 -2 55 0 15 2 2 4 -28 4 -30 0 -43 -2 -27 -4z"/>
<path d="M1388 693 c18 -2 45 -2 60 0 15 2 0 4 -33 4 -33 0 -45 -2 -27 -4z"/>
<path d="M1533 693 c15 -2 39 -2 55 0 15 2 2 4 -28 4 -30 0 -43 -2 -27 -4z"/>
<path d="M1673 693 c15 -2 39 -2 55 0 15 2 2 4 -28 4 -30 0 -43 -2 -27 -4z"/>
<path d="M1813 693 c15 -2 39 -2 55 0 15 2 2 4 -28 4 -30 0 -43 -2 -27 -4z"/>
<path d="M2933 693 c15 -2 37 -2 50 0 12 2 0 4 -28 4 -27 0 -38 -2 -22 -4z"/>
<path d="M1203 630 c0 -30 2 -43 4 -27 2 15 2 39 0 55 -2 15 -4 2 -4 -28z"/>
<path d="M1483 630 c0 -30 2 -43 4 -27 2 15 2 39 0 55 -2 15 -4 2 -4 -28z"/>
<path d="M1773 630 c0 -30 2 -43 4 -27 2 15 2 39 0 55 -2 15 -4 2 -4 -28z"/>
<path d="M271 636 c-17 -20 -41 -84 -50 -132 l-8 -44 37 0 c36 0 38 2 45 37 4
20 15 53 25 74 l19 36 -29 21 c-22 17 -30 19 -39 8z m11 -82 c-10 -22 -17 -44
-15 -51 2 -6 -1 -14 -6 -18 -13 -7 -15 47 -3 59 4 4 7 11 7 14 2 26 18 53 27
44 6 -6 3 -23 -10 -48z"/>
<path d="M923 585 c0 -38 2 -60 4 -48 4 19 12 23 66 26 l62 3 -62 2 -62 2 -4
43 c-2 25 -4 13 -4 -28z"/>
<path d="M640 605 l0 -35 -64 0 -65 0 -4 33 -4 32 -1 -32 c-2 -32 -3 -32 -59
-36 l-58 -3 58 -2 57 -2 0 -70 0 -70 -65 0 -64 0 -4 83 c-3 75 -3 73 -4 -23 0
-58 1 -97 4 -87 4 14 16 17 68 17 l64 0 4 -82 c1 -47 4 -15 5 75 l2 157 65 0
64 0 4 -147 c3 -148 3 -148 5 40 1 103 0 187 -3 187 -3 0 -5 -16 -5 -35z"/>
<path d="M841 576 c-22 -23 -22 -33 -4 -98 7 -26 73 -25 73 0 0 28 -30 122
-39 122 -4 0 -18 -11 -30 -24z m30 -23 c6 -32 6 -73 -1 -73 -8 0 -20 35 -20
63 0 16 18 25 21 10z"/>
<path d="M128 563 c18 -2 45 -2 60 0 15 2 0 4 -33 4 -33 0 -45 -2 -27 -4z"/>
<path d="M1913 563 c9 -2 25 -2 35 0 9 3 1 5 -18 5 -19 0 -27 -2 -17 -5z"/>
<path d="M1060 543 c0 -7 5 -13 10 -13 6 0 10 -28 10 -65 0 -37 -4 -65 -10
-65 -5 0 -10 -4 -10 -10 0 -6 28 -10 64 -10 58 0 67 3 85 26 28 36 27 86 -3
121 -21 24 -31 27 -85 28 -42 0 -61 -4 -61 -12z m127 -29 c16 -21 17 -68 3
-95 -8 -14 -21 -19 -49 -19 l-39 0 3 68 c1 37 3 68 4 69 5 10 67 -8 78 -23z"/>
<path d="M1375 550 c-3 -5 -1 -11 5 -15 13 -8 13 -135 0 -135 -5 0 -10 -4 -10
-10 0 -5 17 -10 37 -10 29 0 34 3 25 12 -7 7 -12 41 -12 84 0 63 -2 72 -20 77
-11 3 -22 1 -25 -3z"/>
<path d="M1774 551 c-9 -9 -3 -21 11 -21 12 0 15 -14 15 -65 0 -51 -3 -65 -15
-65 -8 0 -15 -4 -15 -10 0 -6 28 -10 64 -10 85 0 111 20 111 84 0 67 -27 90
-106 91 -33 0 -63 -2 -65 -4z m132 -39 c19 -24 17 -72 -3 -94 -9 -10 -30 -18
-50 -18 l-33 0 0 71 0 70 37 -6 c20 -3 42 -13 49 -23z"/>
<path d="M1976 553 c-12 -12 -5 -23 14 -23 11 0 20 4 20 9 0 11 -26 22 -34 14z"/>
<path d="M784 430 c0 -58 1 -81 3 -52 2 28 2 76 0 105 -2 28 -3 5 -3 -53z"/>
<path d="M2305 510 c-3 -5 -18 -7 -34 -4 -22 5 -32 0 -49 -20 -13 -17 -26 -24
-36 -20 -18 7 -21 -7 -5 -23 8 -8 8 -17 0 -31 -15 -29 -14 -32 14 -32 22 0 24
-3 18 -31 l-6 -30 53 3 c38 2 56 8 64 21 15 24 -15 47 -61 47 -18 0 -33 5 -33
10 0 6 13 10 29 10 39 0 64 26 58 59 -3 16 1 30 11 38 16 11 16 12 0 13 -9 0
-20 -4 -23 -10z m-15 -35 c18 -21 5 -45 -25 -45 -27 0 -41 20 -31 45 7 19 40
19 56 0z m-79 -72 c-8 -15 -10 -11 -9 15 1 26 3 30 10 18 5 -10 5 -23 -1 -33z
m94 -42 c8 -14 -28 -31 -53 -24 -36 9 -27 33 12 33 19 0 37 -4 41 -9z"/>
<path d="M1272 494 c-30 -21 -31 -88 -2 -104 26 -14 82 -9 87 7 3 9 -6 10 -32
6 -26 -4 -40 -2 -46 8 -15 24 -10 29 34 29 52 0 60 6 45 34 -21 39 -49 46 -86
20z m52 -10 c28 -11 17 -24 -20 -24 -31 0 -35 2 -24 15 14 17 21 18 44 9z"/>
<path d="M1464 484 c-29 -28 -27 -68 4 -92 21 -16 84 -12 90 5 2 9 -5 11 -27
7 -19 -4 -37 -2 -46 6 -25 21 -17 30 28 30 52 0 60 6 45 34 -23 44 -57 48 -94
10z m60 0 c28 -11 17 -24 -20 -24 -31 0 -35 2 -24 15 14 17 21 18 44 9z"/>
<path d="M1574 499 c-2 -3 11 -16 28 -29 l31 -23 -31 -28 c-18 -16 -32 -31
-32 -34 0 -3 13 -5 30 -5 23 0 29 4 27 18 -1 9 3 18 8 19 6 2 10 -5 10 -15 0
-11 9 -18 28 -20 34 -4 34 3 1 32 -24 20 -25 24 -13 44 8 12 19 22 26 22 7 0
13 6 13 13 0 6 -11 12 -25 12 -20 0 -25 -5 -25 -23 0 -15 -5 -22 -12 -19 -7 2
-12 12 -10 23 2 15 -4 19 -24 19 -14 0 -28 -3 -30 -6z"/>
<path d="M1960 500 c0 -5 5 -10 10 -10 6 0 10 -20 10 -45 0 -25 -4 -45 -10
-45 -5 0 -10 -4 -10 -10 0 -5 17 -10 37 -10 29 0 34 3 25 12 -7 7 -12 36 -12
65 0 50 -1 53 -25 53 -14 0 -25 -4 -25 -10z"/>
<path d="M2058 503 c-10 -2 -18 -11 -18 -19 0 -16 16 -19 25 -4 6 10 45 15 45
6 0 -2 3 -11 6 -20 5 -12 0 -16 -19 -16 -14 0 -35 -8 -48 -19 -19 -16 -21 -21
-11 -34 14 -17 122 -22 122 -6 0 5 -4 9 -10 9 -5 0 -10 18 -10 39 0 58 -26 79
-82 64z m51 -94 c-21 -13 -51 -11 -47 3 5 15 52 28 57 15 2 -5 -3 -13 -10 -18z"/>
<path d="M2350 501 c0 -6 5 -13 10 -16 13 -8 13 -78 -1 -92 -7 -7 -3 -12 16
-15 14 -3 28 -1 31 3 3 5 0 9 -5 9 -15 0 -14 87 1 96 6 4 14 2 16 -4 5 -15 32
-16 32 -2 0 16 37 11 44 -6 9 -23 8 -24 -17 -24 -12 0 -33 -7 -45 -16 -17 -12
-20 -19 -12 -34 8 -15 21 -18 65 -18 30 0 55 5 55 9 0 5 -4 9 -10 9 -5 0 -10
20 -10 45 0 33 -5 47 -18 54 -23 12 -83 12 -99 -1 -7 -5 -14 -5 -18 2 -8 13
-35 13 -35 1z m147 -86 c-8 -18 -61 -21 -55 -3 4 12 48 28 57 22 2 -2 1 -10
-2 -19z"/>
<path d="M2550 500 c0 -5 5 -10 10 -10 6 0 10 -20 10 -45 0 -25 -4 -45 -10
-45 -5 0 -10 -4 -10 -10 0 -5 17 -10 38 -10 33 1 35 2 20 14 -25 19 -24 72 2
86 30 16 40 4 40 -51 0 -46 2 -49 25 -49 14 0 25 5 25 10 0 6 -7 10 -15 10
-20 0 -20 63 0 80 28 23 45 4 45 -50 0 -47 2 -50 25 -50 14 0 25 5 25 10 0 6
-7 10 -15 10 -11 0 -15 12 -15 44 0 55 -19 74 -56 57 -20 -9 -30 -9 -40 0 -11
9 -21 9 -39 1 -15 -7 -25 -8 -25 -2 0 6 -9 10 -20 10 -11 0 -20 -4 -20 -10z"/>
<path d="M2180 490 c0 -5 4 -10 9 -10 6 0 13 5 16 10 3 6 -1 10 -9 10 -9 0
-16 -4 -16 -10z"/>
<path d="M221 403 c0 -21 8 -55 17 -76 l17 -38 27 28 c25 27 25 30 15 76 -11
44 -13 47 -44 47 -32 0 -33 -2 -32 -37z m53 -18 c7 -29 0 -48 -15 -40 -12 8
-12 65 0 65 5 0 12 -11 15 -25z"/>
<path d="M835 413 c-3 -16 -14 -50 -25 -76 l-19 -49 27 -23 27 -24 27 57 c15
31 30 76 34 100 l7 42 -37 0 c-31 0 -36 -4 -41 -27z m40 -30 c-5 -37 -21 -80
-34 -88 -16 -9 -13 11 4 45 9 17 15 32 15 35 -1 26 1 35 9 35 5 0 8 -12 6 -27z"/>
<path d="M18 413 c12 -2 30 -2 40 0 9 3 -1 5 -23 4 -22 0 -30 -2 -17 -4z"/>
<path d="M123 413 c15 -2 37 -2 50 0 12 2 0 4 -28 4 -27 0 -38 -2 -22 -4z"/>
<path d="M328 413 c7 -3 16 -2 19 1 4 3 -2 6 -13 5 -11 0 -14 -3 -6 -6z"/>
<path d="M548 413 c18 -2 45 -2 60 0 15 2 0 4 -33 4 -33 0 -45 -2 -27 -4z"/>
<path d="M688 413 c18 -2 45 -2 60 0 15 2 0 4 -33 4 -33 0 -45 -2 -27 -4z"/>
<path d="M968 413 c18 -2 45 -2 60 0 15 2 0 4 -33 4 -33 0 -45 -2 -27 -4z"/>
<path d="M1723 413 c9 -2 25 -2 35 0 9 3 1 5 -18 5 -19 0 -27 -2 -17 -5z"/>
<path d="M2813 413 c15 -2 37 -2 50 0 12 2 0 4 -28 4 -27 0 -38 -2 -22 -4z"/>
<path d="M343 344 c-13 -11 -23 -24 -23 -27 0 -7 100 -67 111 -67 4 0 9 8 12
18 2 9 8 25 12 35 5 11 3 17 -7 17 -7 0 -29 10 -48 23 l-35 23 -22 -22z m77
-55 c0 -5 -13 -3 -30 6 -16 9 -30 20 -30 26 0 5 14 3 30 -6 17 -9 30 -20 30
-26z"/>
<path d="M924 270 c0 -58 1 -79 3 -48 l4 57 62 4 62 3 -62 2 -62 2 -4 43 c-2
23 -3 -5 -3 -63z"/>
<path d="M1772 330 c0 -19 2 -27 5 -17 2 9 2 25 0 35 -3 9 -5 1 -5 -18z"/>
<path d="M2472 330 c0 -19 2 -27 5 -17 2 9 2 25 0 35 -3 9 -5 1 -5 -18z"/>
<path d="M1482 325 c0 -16 2 -22 5 -12 2 9 2 23 0 30 -3 6 -5 -1 -5 -18z"/>
<path d="M281 289 c-23 -18 -23 -20 -7 -38 10 -11 42 -32 71 -48 56 -29 67
-27 79 12 5 16 -4 25 -49 49 -30 16 -55 32 -55 37 0 14 -13 10 -39 -12z m77
-40 c28 -14 40 -25 34 -31 -11 -11 -92 28 -92 44 0 12 10 10 58 -13z"/>
<path d="M710 290 c-14 -11 -41 -26 -61 -35 -35 -16 -36 -18 -26 -50 l10 -33
36 15 c20 8 50 25 66 37 51 38 62 39 21 2 -22 -20 -57 -42 -78 -48 -35 -10
-39 -14 -33 -37 4 -14 10 -29 14 -33 9 -10 118 42 158 76 l32 27 -42 37 c-71
63 -70 63 -97 42z m40 -29 c0 -9 -74 -51 -90 -51 -22 0 -8 19 28 38 41 23 62
27 62 13z m60 -51 c0 -13 -81 -66 -112 -74 -39 -9 -37 16 2 31 17 6 32 11 33
10 1 0 15 11 31 26 27 25 46 28 46 7z"/>
<path d="M160 290 l-65 -6 68 -4 c49 -4 67 -2 67 8 0 6 -1 11 -2 10 -2 -1 -32
-4 -68 -8z"/>
<path d="M18 283 c12 -2 30 -2 40 0 9 3 -1 5 -23 4 -22 0 -30 -2 -17 -4z"/>
<path d="M548 283 c18 -2 45 -2 60 0 15 2 0 4 -33 4 -33 0 -45 -2 -27 -4z"/>
<path d="M2798 283 c18 -2 45 -2 60 0 15 2 0 4 -33 4 -33 0 -45 -2 -27 -4z"/>
<path d="M2933 283 c15 -2 37 -2 50 0 12 2 0 4 -28 4 -27 0 -38 -2 -22 -4z"/>
<path d="M217 234 l-27 -23 38 -31 c35 -29 130 -80 150 -80 9 0 22 32 22 55 0
6 -16 17 -35 24 -19 7 -55 27 -78 45 l-43 33 -27 -23z m93 -54 c72 -44 66 -54
-8 -16 -46 23 -85 56 -66 56 5 -1 38 -19 74 -40z"/>
<path d="M441 205 c-6 -25 -4 -31 13 -38 21 -9 141 -5 150 4 3 3 2 18 -2 33
-7 27 -10 28 -80 29 l-73 2 -8 -30z m136 -11 c-11 -11 -96 -14 -102 -4 -4 6
15 10 51 10 32 0 55 -3 51 -6z"/>
<path d="M835 180 c-10 -11 -53 -38 -95 -59 l-76 -38 10 -31 11 -31 55 22 c58
24 137 74 159 101 11 13 10 19 -10 36 -30 24 -32 24 -54 0z m32 -24 c0 -15
-128 -96 -152 -96 -24 0 -17 19 10 26 14 3 25 9 25 13 0 3 17 15 38 26 20 11
43 26 50 32 18 17 29 16 29 -1z"/>
<path d="M425 150 c-1 -3 -5 -17 -9 -32 -6 -25 -3 -28 29 -34 38 -7 171 -2
180 7 3 3 3 19 -1 35 l-5 29 -96 0 c-52 0 -96 -2 -98 -5z m167 -32 c-18 -18
-118 -20 -133 -2 -10 12 1 14 67 14 62 0 76 -3 66 -12z"/>
<path d="M922 70 l2 -75 3 67 4 67 62 3 62 3 -68 5 -67 5 2 -75z"/>
<path d="M18 133 c12 -2 30 -2 40 0 9 3 -1 5 -23 4 -22 0 -30 -2 -17 -4z"/>
<path d="M1483 70 c0 -30 2 -43 4 -28 2 16 2 40 0 55 -2 16 -4 3 -4 -27z"/>
<path d="M1773 70 c0 -30 2 -43 4 -28 2 16 2 40 0 55 -2 16 -4 3 -4 -27z"/>
<path d="M2193 75 c0 -27 2 -38 4 -22 2 15 2 37 0 50 -2 12 -4 0 -4 -28z"/>
<path d="M2473 70 c0 -30 2 -43 4 -28 2 16 2 40 0 55 -2 16 -4 3 -4 -27z"/>
<path d="M363 40 c0 -25 2 -35 4 -22 2 12 2 32 0 45 -2 12 -4 2 -4 -23z"/>
<path d="M643 40 c0 -25 2 -35 4 -22 2 12 2 32 0 45 -2 12 -4 2 -4 -23z"/>
<path d="M502 30 c0 -19 2 -27 5 -17 2 9 2 25 0 35 -3 9 -5 1 -5 -18z"/>
<path d="M782 20 c0 -14 2 -19 5 -12 2 6 2 18 0 25 -3 6 -5 1 -5 -13z"/>
<path d="M1383 3 c9 -2 23 -2 30 0 6 3 -1 5 -18 5 -16 0 -22 -2 -12 -5z"/>
<path d="M2938 3 c12 -2 32 -2 45 0 12 2 2 4 -23 4 -25 0 -35 -2 -22 -4z"/>
</g>
</svg>
